<svg id="Icons" xmlns="http://www.w3.org/2000/svg" viewBox="0 0 288 288"><defs><style>.cls-1{fill:none;}.cls-2{fill:#a6a9ab;}.cls-3{fill:#324b5c;}.cls-4{fill:#cbcece;}.cls-5{fill:#939699;}.cls-6{fill:#d3eef4;}.cls-7{fill:#bde6ee;}.cls-8{fill:#b9bbbd;}.cls-9{fill:#dee0e0;}.cls-10{fill:#4f6c7d;}.cls-11{fill:#f29111;}</style></defs><title>OCIC_Buildings_Operations-Warehouse_detailed</title><rect class="cls-1" width="288" height="288"/><path class="cls-2" d="M174,95.6S151.15,87,114,87s-60,8.6-60,8.6V150H174Z"/><path class="cls-3" d="M179.35,98.42a252.39,252.39,0,0,0-129.29,0l-1.71-5.75a258.32,258.32,0,0,1,132.71,0Z"/><rect class="cls-4" x="66" y="120" width="27" height="36"/><rect class="cls-4" x="100.5" y="120" width="27" height="36"/><rect class="cls-4" x="135" y="120" width="27" height="36"/><path class="cls-5" d="M90,123v30H69V123H90m3-3H66v36H93V120Z"/><path class="cls-5" d="M124.5,123v30h-21V123h21m3-3h-27v36h27V120Z"/><path class="cls-5" d="M159,123v30H138V123h21m3-3H135v36h27V120Z"/><rect class="cls-6" x="66" y="105" width="27" height="9"/><rect class="cls-7" x="135" y="105" width="27" height="9"/><rect class="cls-3" x="48" y="150" width="132" height="6" transform="translate(228 306) rotate(180)"/><polygon class="cls-6" points="100.5 105 100.5 114 106.13 114 115.13 105 100.5 105"/><polygon class="cls-7" points="106.13 114 127.5 114 127.5 105 115.13 105 106.13 114"/><rect class="cls-8" x="81" y="141" width="108" height="45"/><rect class="cls-5" x="90" y="147" width="3" height="39"/><rect class="cls-9" x="93" y="147" width="3" height="39"/><polygon class="cls-5" points="90 153 90 147 96 147 90 153"/><rect class="cls-5" x="102" y="147" width="3" height="39"/><rect class="cls-9" x="105" y="147" width="3" height="39"/><polygon class="cls-5" points="102 153 102 147 108 147 102 153"/><rect class="cls-5" x="114" y="147" width="3" height="39"/><rect class="cls-9" x="117" y="147" width="3" height="39"/><polygon class="cls-5" points="114 153 114 147 120 147 114 153"/><rect class="cls-5" x="126" y="147" width="3" height="39"/><rect class="cls-9" x="129" y="147" width="3" height="39"/><polygon class="cls-5" points="126 153 126 147 132 147 126 153"/><rect class="cls-5" x="138" y="147" width="3" height="39"/><rect class="cls-9" x="141" y="147" width="3" height="39"/><polygon class="cls-5" points="138 153 138 147 144 147 138 153"/><rect class="cls-5" x="150" y="147" width="3" height="39"/><rect class="cls-9" x="153" y="147" width="3" height="39"/><polygon class="cls-5" points="150 153 150 147 156 147 150 153"/><rect class="cls-5" x="162" y="147" width="3" height="39"/><rect class="cls-9" x="165" y="147" width="3" height="39"/><polygon class="cls-5" points="162 153 162 147 168 147 162 153"/><rect class="cls-5" x="174" y="147" width="3" height="39"/><rect class="cls-9" x="177" y="147" width="3" height="39"/><polygon class="cls-5" points="174 153 174 147 180 147 174 153"/><rect class="cls-10" x="186" y="188.06" width="21" height="9.94" rx="4" ry="4"/><path class="cls-11" d="M217.64,156.75c-3.31-5.9-8.56-9.94-22.64-9.94v46h32.58V175Z"/><path class="cls-11" d="M240,180.37a5,5,0,0,0-3.6-4.78l-10-2.87-8.71-16c-3.31-5.9-8.56-9.94-22.64-9.94v46h32.58v-1.31H240Z"/><path class="cls-7" d="M204.23,159.23a1.1,1.1,0,0,0-1.1,1.1v11a1.1,1.1,0,0,0,1.1,1.1H219a1.1,1.1,0,0,0,1-1.63L214.59,161a3.31,3.31,0,0,0-2.91-1.73Z"/><path class="cls-6" d="M203.12,167.52v-7.18a1.1,1.1,0,0,1,1.1-1.1h7.18Z"/><path class="cls-3" d="M231,190.34a12.41,12.41,0,0,0-10.9-6.5H81v10H217.64v5h5v.5h13.07A4.32,4.32,0,0,0,240,195v-4.68Z"/><path class="cls-11" d="M232.5,196.76a1.5,1.5,0,0,1-1.5-1.5h0a1.5,1.5,0,0,1,1.5-1.5h3a1.5,1.5,0,0,1,1.5,1.5h0a1.5,1.5,0,0,1-1.5,1.5Z"/><path class="cls-11" d="M85.5,190.55A1.5,1.5,0,0,1,84,189h0a1.5,1.5,0,0,1,1.5-1.5h3A1.5,1.5,0,0,1,90,189h0a1.5,1.5,0,0,1-1.5,1.5Z"/><path d="M108.38,196.5a7.5,7.5,0,1,1-7.5-7.5A7.5,7.5,0,0,1,108.38,196.5Z"/><circle class="cls-5" cx="100.87" cy="196.5" r="4"/><path d="M126,196.5a7.5,7.5,0,1,1-7.5-7.5A7.5,7.5,0,0,1,126,196.5Z"/><circle class="cls-5" cx="118.5" cy="196.5" r="4"/><path d="M162.38,196.5a7.5,7.5,0,1,1-7.5-7.5A7.5,7.5,0,0,1,162.38,196.5Z"/><circle class="cls-5" cx="154.87" cy="196.5" r="4"/><path d="M180,196.5a7.5,7.5,0,1,1-7.5-7.5A7.5,7.5,0,0,1,180,196.5Z"/><circle class="cls-5" cx="172.5" cy="196.5" r="4"/><path d="M228,196.5a7.5,7.5,0,1,1-7.5-7.5A7.5,7.5,0,0,1,228,196.5Z"/><circle class="cls-5" cx="220.5" cy="196.5" r="4"/></svg>