<svg id="Icons" xmlns="http://www.w3.org/2000/svg" viewBox="0 0 288 288"><defs><style>.cls-1{fill:none;}.cls-2{fill:#65676a;}.cls-3{fill:#6d8c9e;}.cls-4{fill:#8aadbf;}.cls-5{fill:#fff;}.cls-6{fill:#77253f;}.cls-7{fill:#942645;}.cls-8{fill:#cf7215;}.cls-9{fill:#f29111;}.cls-10{fill:#939699;}.cls-11{fill:#a6a9ab;}.cls-12{fill:#4e5052;}.cls-13{fill:#aac3cf;}</style></defs><title>OCIC_Industries_Research-and-Education_Detailed</title><rect class="cls-1" width="288" height="288"/><path class="cls-2" d="M201,180H189a18,18,0,0,1,0-36h12.3l6.06,8.66L222,144.2V117H204a48,48,0,0,0,0,96v-9h-3Z"/><rect class="cls-3" x="48" y="84" width="27" height="129" rx="3" ry="3"/><path class="cls-4" d="M72,84H61.5V213H72a3,3,0,0,0,3-3V87A3,3,0,0,0,72,84Z"/><rect class="cls-5" x="51" y="93" width="21" height="6"/><rect class="cls-6" x="81" y="75" width="27" height="138" rx="3" ry="3"/><path class="cls-7" d="M105,75H94.5V213H105a3,3,0,0,0,3-3V78A3,3,0,0,0,105,75Z"/><rect class="cls-5" x="84" y="84" width="21" height="6"/><rect class="cls-8" x="117.43" y="83.07" width="27" height="129" rx="3" ry="3" transform="translate(-12.36 11.97) rotate(-5)"/><path class="cls-9" d="M135.77,82.4l-10.46.92,11.24,128.51,10.46-.92a3,3,0,0,0,2.73-3.25L139,85.13A3,3,0,0,0,135.77,82.4Z"/><rect class="cls-5" x="115.85" y="92.27" width="21" height="6" transform="translate(-7.82 11.38) rotate(-5)"/><rect class="cls-10" x="201" y="84" width="18" height="33"/><rect class="cls-11" x="189" y="174" width="51" height="6"/><circle class="cls-10" cx="189" cy="192" r="6"/><circle class="cls-10" cx="178.5" cy="136.5" r="4.5"/><rect class="cls-11" x="210" y="84" width="9" height="33"/><path class="cls-12" d="M201,84h9a0,0,0,0,1,0,0v6a0,0,0,0,1,0,0h-9a3,3,0,0,1-3-3v0A3,3,0,0,1,201,84Z"/><path class="cls-2" d="M213,84h9a0,0,0,0,1,0,0v6a0,0,0,0,1,0,0h-9a3,3,0,0,1-3-3v0a3,3,0,0,1,3-3Z" transform="translate(432 174) rotate(-180)"/><circle class="cls-13" cx="198" cy="117" r="12"/><circle class="cls-4" cx="198" cy="117" r="6"/><path class="cls-11" d="M237.26,146.94l-4-2.3A19.75,19.75,0,0,1,228,152l4.72,2.72a1,1,0,0,0,1.37-.37l3.5-6.06A1,1,0,0,0,237.26,146.94Z"/><path class="cls-11" d="M226.47,153.36a30.76,30.76,0,0,1-7.79,4.5l1.92,3.32a1,1,0,0,0,1.37.37L228,158a1,1,0,0,0,.37-1.37Z"/><path class="cls-11" d="M207.71,159.39V164a1,1,0,0,0,1,1h7a1,1,0,0,0,1-1v-5.45A19.75,19.75,0,0,1,207.71,159.39Z"/><path class="cls-9" d="M204,180h33a0,0,0,0,1,0,0v4.5a1.5,1.5,0,0,1-1.5,1.5h-30a1.5,1.5,0,0,1-1.5-1.5V180A0,0,0,0,1,204,180Z"/><rect class="cls-8" x="204" y="180" width="33" height="3"/><rect class="cls-12" x="165" y="204" width="75" height="9"/><path class="cls-12" d="M201.9,155.81c2.9,5,12.23,5.06,20.84.09s13.24-13.07,10.34-18.09Z"/><rect class="cls-4" x="196.49" y="146.41" width="45" height="6" transform="translate(-45.36 129.51) rotate(-30)"/></svg>