<svg id="Icons" xmlns="http://www.w3.org/2000/svg" viewBox="0 0 288 288"><defs><style>.cls-1{fill:none;}.cls-2{fill:#cbcece;}.cls-3{fill:#b9bbbd;}.cls-4{fill:#dac7b3;}.cls-5{fill:#cdb498;}.cls-6{fill:#b29d86;}.cls-7{fill:#bdae9d;}.cls-8{fill:#fff;}.cls-9{fill:#324b5c;}.cls-10{fill:#4f6c7d;}.cls-11{fill:#f80000;}.cls-12{fill:#283c4a;}.cls-13{fill:#8aadbf;}.cls-14{fill:#aac3cf;}.cls-15{fill:#f29111;}</style></defs><title>OCIC_Personas_Sales-Team_Detailed</title><rect class="cls-1" width="288" height="288"/><path class="cls-2" d="M240,174l-3.61-27.08a11.79,11.79,0,0,0-6.64-9.09l-12.66-6-6-2.84a4.22,4.22,0,0,1-1-.67v2.35h-9.9V174Z"/><path class="cls-3" d="M200.19,174V130.67h-9.9v-2.35a4.22,4.22,0,0,1-1,.67l-6,2.84-12.66,6a11.79,11.79,0,0,0-6.64,9.09L160.37,174Z"/><path class="cls-4" d="M209.63,127.84a4.24,4.24,0,0,1-1-2.68v-7.22h-8.49v12.73l9.44-2.83Z"/><path class="cls-5" d="M190.74,127.84l9.44,2.83V117.94H191.7v7.22a4.24,4.24,0,0,1-1,2.68Z"/><path class="cls-6" d="M191.7,125.16a4.24,4.24,0,0,1-2.43,3.83h0a11.18,11.18,0,0,0,5.33,2.87,16.28,16.28,0,0,0,5.59-1.93v-12H191.7Z"/><path class="cls-7" d="M208.11,119.4l.43-1.46h-8.36v12h0c.28-.16.56-.34.84-.53C203.85,127.53,206.43,124.43,208.11,119.4Z"/><path d="M187.78,106.87l-.36.83H213l-.36-.83a48.63,48.63,0,0,0,1.2-9.27c-.05-5.05-4.6-10.29-10.63-10.88L201.16,84c-14.66.69-14.58,12.68-14.58,12.68v1.46A50.26,50.26,0,0,0,187.78,106.87Z"/><path class="cls-3" d="M217.2,167.44h-7.07l-2.83-2.83V150.47H220v14.14Z"/><path class="cls-8" d="M211.71,129.28l-.61-.29a4.24,4.24,0,0,1-1.47-1.15l-9.44,2.83,4.24,7.34Z"/><path class="cls-8" d="M189.27,129l-.61.29,7.28,8.73,4.24-7.34-9.44-2.83A4.24,4.24,0,0,1,189.27,129Z"/><path class="cls-4" d="M211.54,105.21H211v-3.89s.12-4.08-1.68-4.92a3.05,3.05,0,0,0-1.4-.29c-1.88,0-3.74,1.58-7.68,1.49-3.94.09-5.81-1.54-7.68-1.49a3.05,3.05,0,0,0-1.4.29c-1.8.84-1.68,4.92-1.68,4.92v13.6h0v.24C190.9,125.59,198.8,126,200,126h.37c1.23,0,9.13-.46,10.58-10.88v-.05a2.83,2.83,0,0,0,2.75-2.43l.61-4.24A2.83,2.83,0,0,0,211.54,105.21Z"/><path class="cls-5" d="M200.12,117.48a2.85,2.85,0,0,0,.37-2.15c-.67-1-1.91-.24-2.16-1.73-.1-.57.85-2.34,1.18-3.81a8.63,8.63,0,0,0,.19-3.19,4.86,4.86,0,0,0-3.73-3.53,7,7,0,0,0-6.54,1.69v.45h-.52a2.83,2.83,0,0,0-2.8,3.23l.61,4.24a2.83,2.83,0,0,0,2.72,2.43v.05C190.88,125.59,198.78,126,200,126h.35a8.32,8.32,0,0,0-.06-4.15c0-.13-.07-.25-.11-.38a2,2,0,0,1,.56-2.38C201.44,118,199.4,118.93,200.12,117.48Z"/><path class="cls-9" d="M87.81,174V127.84H78.37l-20.26,10a11.79,11.79,0,0,0-6.49,9L48,174Z"/><path class="cls-10" d="M127.63,174,124,146.82a11.79,11.79,0,0,0-6.49-9l-20.26-10H87.81V174Z"/><path class="cls-4" d="M97.26,127.84a4.24,4.24,0,0,1-1-2.68v-7.22H87.81v12.73l9.44-2.83Z"/><path class="cls-5" d="M78.37,127.84l9.44,2.83V117.94H79.33v7.22a4.24,4.24,0,0,1-1,2.68Z"/><path class="cls-6" d="M79.33,125.16A4.24,4.24,0,0,1,76.9,129h0a11.18,11.18,0,0,0,5.33,2.87,16.28,16.28,0,0,0,5.59-1.93v-12H79.33Z"/><path class="cls-7" d="M95.74,119.4l.43-1.46H87.81v12h0c.28-.16.56-.34.84-.53C91.48,127.53,94.05,124.43,95.74,119.4Z"/><path d="M75.41,106.87l-.36.83h25.58l-.36-.83a48.63,48.63,0,0,0,1.2-9.27c-.05-5.05-4.6-10.29-10.63-10.88L88.78,84c-14.66.69-14.58,12.68-14.58,12.68v1.46A50.26,50.26,0,0,0,75.41,106.87Z"/><path class="cls-4" d="M99.17,105.21h-.58v-3.89s.12-4.08-1.68-4.92a3.05,3.05,0,0,0-1.4-.29c-1.88,0-3.74,1.58-7.68,1.49-3.94.09-5.81-1.54-7.68-1.49a3.05,3.05,0,0,0-1.4.29c-1.8.84-1.68,4.92-1.68,4.92v13.6h0v.24C78.51,125.59,86.41,126,87.64,126H88c1.23,0,9.13-.46,10.58-10.88v-.05a2.83,2.83,0,0,0,2.77-2.43l.61-4.24A2.83,2.83,0,0,0,99.17,105.21Z"/><path class="cls-5" d="M87.75,117.48a2.85,2.85,0,0,0,.37-2.15c-.67-1-1.91-.24-2.16-1.73-.1-.57.85-2.34,1.18-3.81a8.63,8.63,0,0,0,.19-3.19,4.86,4.86,0,0,0-3.73-3.53,7,7,0,0,0-6.54,1.69v.45h-.52a2.83,2.83,0,0,0-2.8,3.23l.61,4.24a2.83,2.83,0,0,0,2.72,2.43v.05C78.51,125.59,86.41,126,87.64,126H88a8.32,8.32,0,0,0-.06-4.15c0-.13-.07-.25-.11-.38a2,2,0,0,1,.56-2.38C89.07,118,87,118.93,87.75,117.48Z"/><polygon class="cls-2" points="78.37 127.84 87.81 173.1 97.26 127.84 87.81 130.67 78.37 127.84"/><polygon class="cls-11" points="87.81 173.1 93.47 158.96 89.23 138.98 92.06 130.67 83.57 130.67 86.4 139.16 82.16 158.96 87.81 173.1"/><path class="cls-8" d="M99.34,129.28l-.61-.29a4.24,4.24,0,0,1-1.47-1.15l-9.44,2.83L92.06,138Z"/><path class="cls-8" d="M76.9,129l-.61.29L83.57,138l4.24-7.34-9.44-2.83A4.24,4.24,0,0,1,76.9,129Z"/><polygon class="cls-9" points="100.5 140.57 103.33 137.74 101.63 129.99 97.26 127.84 87.81 173.1 103.33 144.81 100.5 140.57"/><polygon class="cls-12" points="75.13 140.57 72.3 137.74 74 129.99 78.37 127.84 87.81 173.1 72.3 144.81 75.13 140.57"/><polygon class="cls-13" points="144 171 144 116.86 136.27 116.86 125.44 161.72 125.44 171 144 171"/><polygon class="cls-14" points="162.56 171 162.56 161.72 151.73 116.86 144 116.86 144 171 162.56 171"/><path d="M164.11,95.2H144v20.11h15.47C162.51,110.25,164.11,101.11,164.11,95.2Z"/><path class="cls-5" d="M144,126.14V107.05h-7.73v9.86a4.64,4.64,0,0,1-2.78,4.25l-.28.12C133.53,121.79,136.63,126.14,144,126.14Z"/><path class="cls-4" d="M154.8,121.29l-.28-.12a4.64,4.64,0,0,1-2.78-4.25v-9.86H144v19.09C151.37,126.14,154.47,121.79,154.8,121.29Z"/><path class="cls-7" d="M151.73,109.13v-2.07H144v13C147.08,118,149.89,114.62,151.73,109.13Z"/><path class="cls-6" d="M136.27,107.05v9.86a4.64,4.64,0,0,1-2.78,4.25l-.28.12a9,9,0,0,0,1.57,1.71,18.7,18.7,0,0,0,8.31-2.36c.31-.18.62-.37.92-.58v-13Z"/><path d="M147,74.95,144.63,72c-9.47,0-20.74,6.12-20.74,21.66,0,8.48,4.25,20.11,20.17,20.11s20-9.22,20-18.56C164.11,81.35,157.08,74.95,147,74.95Z"/><path class="cls-4" d="M156.3,94.27s-.27-13-12.18-13-12.41,8.89-12.48,11.17c0,0-.83,18,7.7,22.93h-.05c4.38,2.6,9.18.3,9.76,0C157.61,110.6,156.3,94.27,156.3,94.27Z"/><path class="cls-5" d="M143.66,108.05a3.12,3.12,0,0,0,.4-2.35c-.73-1.09-2.08-.26-2.36-1.89-.11-.62.93-2.55,1.29-4.17a9.43,9.43,0,0,0,.21-3.48,5.32,5.32,0,0,0-4.08-3.86c-3.2-.67-6.18,1.59-7.47,2.89v.05a3.09,3.09,0,0,0-2.61,3.5l.47,3.31a4.64,4.64,0,0,0,3.64,3.89c1.1,3.9,3,7.6,6.19,9.45h-.05A8.91,8.91,0,0,0,144,116.6a7.66,7.66,0,0,0-.14-3.71c0-.14-.07-.28-.12-.41a2.23,2.23,0,0,1,.62-2.61C145.1,108.57,142.87,109.64,143.66,108.05Z"/><path d="M156.38,87.47V79.73H137.81v2.58A12.89,12.89,0,0,0,150.7,95.2h2.58a3.09,3.09,0,0,1,3.09,3.09V106h6.19V87.47Z"/><path class="cls-10" d="M177.76,137.44a12.89,12.89,0,0,0-7.49-9.38l-15.48-6.77-.28-.12a4.62,4.62,0,0,1-1.23-.8v2.58a12.06,12.06,0,0,1-2.4,1.62l-3.78,34.06V171h37.13Z"/><polygon class="cls-8" points="161.02 135.42 156.38 135.42 147.09 158.63 151.73 116.86 161.02 135.42"/><path class="cls-9" d="M110.24,137.44a12.89,12.89,0,0,1,7.49-9.38l15.48-6.77.28-.12a4.62,4.62,0,0,0,1.23-.8v2.58a12.06,12.06,0,0,0,2.4,1.62l3.78,34.06V171H103.78Z"/><polygon class="cls-8" points="126.98 135.42 131.63 135.42 140.91 158.63 136.27 116.86 126.98 135.42"/><rect class="cls-15" x="96" y="150" width="96" height="66" rx="3" ry="3"/><path class="cls-8" d="M154.5,159a3,3,0,0,0-3,3v3a3,3,0,0,0,3,3h13.14l-22.36,22.4-13.13-13.13L96,213.39A3,3,0,0,0,99,216h7.15l26-26,13.13,13.13L174,174.41V187.5a3,3,0,0,0,3,3h3a3,3,0,0,0,3-3V159H154.5Z"/></svg>