<svg id="Icons" xmlns="http://www.w3.org/2000/svg" viewBox="0 0 288 288"><defs><style>.cls-1{fill:none;}.cls-2{fill:#b9bbbd;}.cls-2,.cls-3{fill-rule:evenodd;}.cls-3{fill:#e9eaea;}.cls-4{fill:#939699;}.cls-5{fill:#f29111;}.cls-6{fill:#4e5052;}.cls-7{fill:#bde6ee;}.cls-8{fill:#d3eef4;}</style></defs><title>OCIC_Business_Revenue-Accounting_Detailed</title><rect class="cls-1" width="288" height="288"/><polygon class="cls-2" points="48 72 72 72 72 48 48 72"/><polygon class="cls-3" points="72 48 165 48 165 198 48 198 48 72 72 72 72 48"/><rect class="cls-4" x="72" y="168" width="69" height="6"/><rect class="cls-4" x="72" y="147" width="69" height="6"/><path class="cls-5" d="M124.65,114.14c0-8.11-5.86-11.57-11.57-13.76S102,97.2,102,94.17c0-2.82,2.54-4.3,5-4.3a14.79,14.79,0,0,1,8.71,3.22,1.9,1.9,0,0,0,2.6-.34L122,88.13a1.9,1.9,0,0,0-.42-2.77,26.39,26.39,0,0,0-10.56-4.29V73.9a1.9,1.9,0,0,0-1.9-1.9h-5.31a1.9,1.9,0,0,0-1.9,1.9v7.42c-6.36,1.41-10.89,5.82-10.89,13.49s5.5,10.65,11,12.7,11,3.25,11,7.27c0,3.17-2.12,5.22-7.55,5.22-3.89,0-7-2.39-9.5-4.67a1.89,1.89,0,0,0-2.58.06l-4.64,4.5a1.53,1.53,0,0,0,0,2.22c4,3.63,8.05,5.94,13.1,6.75v7.26a1.9,1.9,0,0,0,1.9,1.9h5.31a1.9,1.9,0,0,0,1.9-1.9v-7.42C118.26,127.25,124.65,122.63,124.65,114.14Z"/><rect class="cls-6" x="156" y="120" width="84" height="120" rx="6" ry="6"/><rect class="cls-7" x="165" y="129" width="66" height="27"/><polygon class="cls-8" points="165 129 165 156 165 156 192 129 165 129"/><rect class="cls-4" x="219" y="201" width="12" height="30" rx="3" ry="3"/><rect class="cls-4" x="183" y="165" width="12" height="12" rx="3" ry="3"/><rect class="cls-4" x="201" y="165" width="12" height="12" rx="3" ry="3"/><rect class="cls-4" x="219" y="165" width="12" height="12" rx="3" ry="3"/><rect class="cls-4" x="165" y="165" width="12" height="12" rx="3" ry="3"/><rect class="cls-4" x="183" y="183" width="12" height="12" rx="3" ry="3"/><rect class="cls-4" x="201" y="183" width="12" height="12" rx="3" ry="3"/><rect class="cls-4" x="219" y="183" width="12" height="12" rx="3" ry="3"/><rect class="cls-4" x="165" y="183" width="12" height="12" rx="3" ry="3"/><rect class="cls-4" x="183" y="201" width="12" height="12" rx="3" ry="3"/><rect class="cls-4" x="201" y="201" width="12" height="12" rx="3" ry="3"/><rect class="cls-4" x="165" y="201" width="12" height="12" rx="3" ry="3"/><rect class="cls-4" x="165" y="219" width="12" height="12" rx="3" ry="3"/><rect class="cls-4" x="183" y="219" width="12" height="12" rx="3" ry="3"/><rect class="cls-4" x="201" y="219" width="12" height="12" rx="3" ry="3"/><path class="cls-6" d="M225,132h-9a3,3,0,0,0,3,3h6v6h-9a3,3,0,0,0,3,3h6v6h-6a3,3,0,0,0-3,3h9a3,3,0,0,0,3-3V135A3,3,0,0,0,225,132Zm-30,0v18a3,3,0,0,0,3,3V135A3,3,0,0,0,195,132Zm15,0h-9a3,3,0,0,0,3,3h6v6h-6a3,3,0,0,0-3,3v6a3,3,0,0,0,3,3h9a3,3,0,0,0-3-3h-6v-6h6a3,3,0,0,0,3-3v-6A3,3,0,0,0,210,132Z"/></svg>